<?xml version="1.0" encoding="utf-8"?>
<!-- Generator: Adobe Illustrator 22.1.0, SVG Export Plug-In . SVG Version: 6.00 Build 0)  -->
<svg version="1.1" id="Layer_1" xmlns="http://www.w3.org/2000/svg" xmlns:xlink="http://www.w3.org/1999/xlink" x="0px" y="0px"
	 viewBox="0 0 174 68" style="enable-background:new 0 0 174 68;" xml:space="preserve">
<style type="text/css">
	.st0{fill:#FFFFFF;}
</style>
<g>
	<path class="st0" d="M27,21l1.4-2.5c0,0-2-1.5-2-6.1s3-9.2,3.7-9.2c0.6,0,3,4,3,9c0,3.3-0.8,5.6-1.1,6.2c-0.9-3.9-3-7.1-3.4-7.1
		c0.6,2.1,2.7,9.6-1.8,12.1c-4.4,2.5-6.3,3.7-9.1,1c-2.8-2.7-4.8-4-4.8-4l0.3,1.1c0,0,2.6,4.2,5.2,5c-3.7,0-8.1-0.6-13.6-9.1
		c7.8-1.8,14.1,3.8,15,6.6c2.1,0.1,2.1,0.1,2.1,0.1s0.6-5-7.7-8.8C9.5,13.5,3,16.1,3,16.1c0.4,3.8,4.2,15.8,16.2,13
		c12-2.8,16.5-10.2,17.2-15.7c0.6-5.4-4.8-13-6.8-13c-1.1,0-6.2,6.7-6.2,12.7C23.4,18.4,27,21,27,21z"/>
	<path class="st0" d="M40.7,34.6l1.5,2.4c0,0,2.3-1,6.3,1.2c4,2.2,6.6,7.1,6.3,7.7c-0.3,0.6-5,0.7-9.3-1.7c-2.9-1.6-4.5-3.4-4.8-4
		c3.8,1.1,7.6,0.8,7.8,0.5c-2.2-0.5-9.7-2.4-9.7-7.5c0-5.1-0.1-7.3,3.6-8.4c3.7-1.1,5.9-2.2,5.9-2.2L47,22.2c0,0-4.9,0.3-6.9,2.1
		c1.8-3.2,4.5-6.7,14.6-7.5c-2.3,7.7-10.2,10.5-13.1,9.9c-1.2,1.8-1.2,1.8-1.2,1.8s4.1,3,11.5-2.4C55.9,23,56.7,16,56.7,16
		c-3.5-1.5-15.8-4.1-19.2,7.8c-3.4,11.8,0.9,19.4,5.3,22.6c4.4,3.2,13.7,2.2,14.7,0.4c0.6-1-2.8-8.7-8.1-11.6
		C44.8,32.7,40.7,34.6,40.7,34.6z"/>
	<path class="st0" d="M22.3,39.5l-2.9,0.1c0,0-0.3,2.5-4.2,4.8c-3.9,2.3-9.5,2-9.8,1.5c-0.3-0.5,2-4.6,6.2-7.1
		c2.8-1.6,5.2-2.1,5.9-2.1c-2.9,2.7-4.6,6.2-4.4,6.5c1.5-1.6,7-7.1,11.4-4.5c4.4,2.6,6.3,3.6,5.4,7.4C29,49.6,28.8,52,28.8,52
		l0.9-0.8c0,0,2.3-4.4,1.8-7c1.8,3.2,3.5,7.3-1,16.4c-5.5-5.9-3.8-14.1-1.9-16.3c-1-1.9-1-1.9-1-1.9s-4.7,2-3.8,11.1
		c0.7,5,6.2,9.2,6.2,9.2c3.1-2.2,11.6-11.5,3.1-20.5c-8.4-9-17.1-9.2-22.2-7c-5,2.2-8.8,10.7-7.8,12.4c0.6,1,8.9,2,14.1-1
		C21.8,44,22.3,39.5,22.3,39.5z"/>
	<path class="st0" d="M13.8,14.2c0,0,1.6-0.1,2,0.5c-0.3-5.2,0.5-6.8,0.5-6.8s4.7,1.6,5.8,2.8c0.3-1.6,0.5-2.1,0.5-2.1
		S16,4.8,14.9,5.8C13.8,6.8,13.6,12.2,13.8,14.2z"/>
	<path class="st0" d="M37.4,8.3c0,0,0.8,1.4,0.4,2C42.4,8,44.2,8,44.2,8s0.4,4.9-0.2,6.4c1.6-0.4,2.2-0.4,2.2-0.4s0.8-7.5-0.6-8.2
		C44.2,5.3,39.2,7.4,37.4,8.3z"/>
	<path class="st0" d="M53.9,26.4c0,0-0.9,1.4-1.6,1.3c4.3,2.9,5.2,4.5,5.2,4.5s-4.1,2.8-5.7,3c1.2,1.2,1.4,1.7,1.4,1.7s7-3,6.8-4.5
		C59.9,30.9,55.6,27.5,53.9,26.4z"/>
	<path class="st0" d="M46.4,49.1c0,0-1.6,0.1-2-0.6c0.1,5.2-0.7,6.8-0.7,6.8s-4.6-1.7-5.7-2.9c-0.3,1.6-0.6,2.1-0.6,2.1
		s6.5,3.9,7.6,2.9C46.2,56.6,46.5,51.1,46.4,49.1z"/>
	<path class="st0" d="M22.9,54.4c0,0-0.9-1.4-0.6-2c-4.4,2.8-6.2,2.9-6.2,2.9s-0.9-4.9-0.4-6.4c-1.6,0.6-2.1,0.6-2.1,0.6
		s-0.1,7.6,1.4,8.1C16.4,58.1,21.2,55.5,22.9,54.4z"/>
	<path class="st0" d="M6.7,36.7c0,0,0.8-1.5,1.5-1.5c-4.5-2.5-5.5-4-5.5-4s3.8-3.1,5.4-3.5c-1.3-1.1-1.6-1.5-1.6-1.5
		s-6.7,3.6-6.4,5.1C0.4,32.8,4.9,35.8,6.7,36.7z"/>
	<path class="st0" d="M21.5,30.1c0,0,1.6-0.8,2.3-0.8c0.1,3-0.1,4.3-0.1,4.3s-1.9-0.4-2.4-0.4C21.3,31.8,21.5,30.1,21.5,30.1z"/>
	<path class="st0" d="M33,39.7c0,0-1.5-1-1.8-1.5c2.5-1.7,3.7-2.2,3.7-2.2s0.7,1.8,1,2.2C34.4,38.9,33,39.7,33,39.7z"/>
	<path class="st0" d="M35.3,25.2c0,0-0.1,1.8-0.4,2.4c-2.7-1.3-3.7-2.1-3.7-2.1s1.2-1.5,1.5-1.9C33.9,24.3,35.3,25.2,35.3,25.2z"/>
</g>
<g>
	<g>
		<path class="st0" d="M66,7.9V4.7h7.8l0.2,2.6c0.6-1,1.4-1.7,2.4-2.2c1-0.5,2.1-0.8,3.3-0.8c1.3,0,2.4,0.3,3.3,0.8
			c0.9,0.6,1.6,1.4,2.1,2.6c0.6-1.1,1.4-1.9,2.4-2.5c1-0.6,2.1-0.9,3.5-0.9c2,0,3.5,0.7,4.6,2c1.1,1.4,1.7,3.4,1.7,6.2v8.3l2.6,0.6
			v3.2H89.6v-3.2l2.3-0.6v-8.3c0-1.5-0.2-2.6-0.7-3.1C90.7,8.8,90,8.5,89,8.5c-0.8,0-1.4,0.2-2,0.5c-0.6,0.3-1,0.8-1.3,1.4
			c0,0.2,0,0.4,0,0.6c0,0.2,0,0.3,0,0.5v9.3l2.2,0.6v3.2h-9.7v-3.2l2.2-0.6v-8.3c0-1.5-0.2-2.5-0.7-3.1c-0.5-0.6-1.2-0.9-2.2-0.9
			c-0.7,0-1.4,0.1-1.9,0.4c-0.5,0.3-1,0.7-1.4,1.2v10.7l2.3,0.6v3.2H66.3v-3.2l2.6-0.6V8.4L66,7.9z"/>
		<path class="st0" d="M101.5,14.4c0-3,0.8-5.4,2.5-7.3c1.7-1.9,4-2.8,6.9-2.8c2.9,0,5.2,0.9,6.9,2.8c1.7,1.9,2.5,4.3,2.5,7.3v0.4
			c0,3-0.8,5.4-2.5,7.3c-1.7,1.9-3.9,2.8-6.9,2.8c-3,0-5.3-0.9-6.9-2.8c-1.7-1.9-2.5-4.3-2.5-7.3V14.4z M106.8,14.8
			c0,1.8,0.3,3.3,1,4.4c0.6,1.1,1.7,1.6,3.1,1.6c1.4,0,2.4-0.6,3-1.7c0.6-1.1,1-2.6,1-4.4v-0.4c0-1.8-0.3-3.2-1-4.3
			c-0.7-1.1-1.7-1.7-3.1-1.7c-1.4,0-2.4,0.6-3.1,1.7c-0.6,1.1-1,2.6-1,4.3V14.8z"/>
		<path class="st0" d="M121.9,7.9V4.7h7.8l0.2,2.6c0.6-1,1.4-1.7,2.4-2.2c1-0.5,2.1-0.8,3.3-0.8c1.3,0,2.4,0.3,3.3,0.8
			c0.9,0.6,1.6,1.4,2.1,2.6c0.6-1.1,1.4-1.9,2.4-2.5c1-0.6,2.1-0.9,3.5-0.9c2,0,3.5,0.7,4.6,2c1.1,1.4,1.7,3.4,1.7,6.2v8.3l2.6,0.6
			v3.2h-10.3v-3.2l2.3-0.6v-8.3c0-1.5-0.2-2.6-0.7-3.1c-0.5-0.6-1.2-0.9-2.2-0.9c-0.8,0-1.4,0.2-2,0.5c-0.6,0.3-1,0.8-1.3,1.4
			c0,0.2,0,0.4,0,0.6c0,0.2,0,0.3,0,0.5v9.3l2.2,0.6v3.2h-9.7v-3.2l2.2-0.6v-8.3c0-1.5-0.2-2.5-0.7-3.1c-0.5-0.6-1.2-0.9-2.2-0.9
			c-0.7,0-1.4,0.1-1.9,0.4c-0.5,0.3-1,0.7-1.4,1.2v10.7l2.3,0.6v3.2h-10.3v-3.2l2.6-0.6V8.4L121.9,7.9z"/>
		<path class="st0" d="M66.3,52.1c0-1.4,0.4-2.7,1.2-3.7c0.8-1,2-2.1,3.6-3.3c-0.8-1.1-1.5-2.2-1.9-3.1c-0.4-0.9-0.6-1.9-0.6-2.8
			c0-2.1,0.7-3.8,2-5.1c1.3-1.3,3.1-1.9,5.3-1.9c1.9,0,3.5,0.6,4.8,1.8c1.2,1.2,1.8,2.7,1.8,4.4c0,1.2-0.3,2.3-0.9,3.3
			c-0.6,1-1.4,1.9-2.5,2.6l-1.7,1.2l5.1,5.9c0.4-0.7,0.8-1.5,1-2.4c0.2-0.9,0.4-1.8,0.4-2.7h4c0,1.7-0.2,3.2-0.6,4.7
			c-0.4,1.4-1.1,2.7-1.9,3.8l3.8,4.5l0,0.1h-6l-1.4-1.6c-1,0.7-2.1,1.2-3.2,1.5c-1.1,0.3-2.3,0.5-3.5,0.5c-2.7,0-4.8-0.7-6.4-2.1
			C67.1,56.2,66.3,54.4,66.3,52.1z M75.3,55.6c0.6,0,1.3-0.1,1.9-0.2c0.6-0.2,1.3-0.4,1.9-0.7l-5.5-6.4l-0.4,0.2
			c-0.6,0.6-1.1,1.2-1.3,1.7c-0.2,0.6-0.3,1.1-0.3,1.7c0,1.1,0.3,2,1,2.7C73.3,55.2,74.2,55.6,75.3,55.6z M73.4,39.1
			c0,0.5,0.1,1.1,0.4,1.6c0.3,0.6,0.7,1.2,1.2,1.8l1.6-1c0.7-0.4,1.1-0.9,1.4-1.4c0.2-0.5,0.4-1,0.4-1.5c0-0.6-0.2-1.2-0.7-1.6
			c-0.4-0.5-1-0.7-1.8-0.7c-0.8,0-1.4,0.3-1.8,0.8C73.7,37.6,73.4,38.3,73.4,39.1z"/>
		<path class="st0" d="M109.3,49.9c0,3-0.7,5.3-2,7.1c-1.3,1.8-3.2,2.7-5.7,2.7c-1.2,0-2.2-0.2-3-0.7c-0.9-0.5-1.6-1.2-2.2-2.1
			L96,59.3h-4.6V34.4l-2.8-0.6v-3.2h8.2v10.9c0.6-0.8,1.3-1.4,2.1-1.8c0.8-0.4,1.7-0.6,2.8-0.6c2.5,0,4.4,1,5.8,2.9
			c1.3,1.9,2,4.4,2,7.6V49.9z M104,49.5c0-1.9-0.3-3.5-0.9-4.6c-0.6-1.1-1.5-1.7-2.9-1.7c-0.8,0-1.5,0.2-2.1,0.5
			c-0.6,0.3-1,0.8-1.4,1.5v8.4c0.3,0.6,0.8,1.1,1.4,1.4c0.6,0.3,1.3,0.5,2.1,0.5c1.4,0,2.4-0.5,2.9-1.5c0.6-1,0.8-2.4,0.8-4.1V49.5z
			"/>
		<path class="st0" d="M124.5,59.3c-0.1-0.3-0.3-0.7-0.4-1c-0.1-0.3-0.2-0.7-0.3-1.1c-0.6,0.7-1.4,1.3-2.3,1.8
			c-0.9,0.5-2,0.7-3.1,0.7c-1.9,0-3.5-0.5-4.6-1.6c-1.1-1.1-1.7-2.5-1.7-4.3c0-1.9,0.7-3.3,2.2-4.3s3.7-1.5,6.6-1.5h2.7V46
			c0-1-0.3-1.7-0.8-2.2c-0.6-0.5-1.4-0.8-2.4-0.8c-0.6,0-1.2,0.1-1.6,0.2c-0.5,0.1-0.9,0.3-1.2,0.5l-0.3,2.1h-4l0-4.4
			c1-0.7,2.1-1.2,3.4-1.7c1.3-0.5,2.6-0.7,4.1-0.7c2.5,0,4.5,0.6,6,1.8c1.5,1.2,2.3,2.9,2.3,5.2v8.2c0,0.3,0,0.6,0,0.9
			c0,0.3,0,0.5,0.1,0.8l1.6,0.2v3.2H124.5z M119.8,55.7c0.8,0,1.5-0.2,2.2-0.5c0.7-0.3,1.2-0.8,1.5-1.3v-3h-2.7
			c-1.1,0-2,0.3-2.6,0.8c-0.6,0.5-0.9,1.2-0.9,1.9c0,0.7,0.2,1.2,0.7,1.6C118.5,55.5,119.1,55.7,119.8,55.7z"/>
		<path class="st0" d="M151.1,49.9c0,3-0.7,5.3-2,7.1c-1.3,1.8-3.2,2.7-5.7,2.7c-1.2,0-2.2-0.2-3-0.7c-0.9-0.5-1.6-1.2-2.2-2.1
			l-0.4,2.4h-4.6V34.4l-2.8-0.6v-3.2h8.2v10.9c0.6-0.8,1.3-1.4,2.1-1.8c0.8-0.4,1.7-0.6,2.8-0.6c2.5,0,4.4,1,5.8,2.9
			c1.3,1.9,2,4.4,2,7.6V49.9z M145.8,49.5c0-1.9-0.3-3.5-0.9-4.6c-0.6-1.1-1.5-1.7-2.9-1.7c-0.8,0-1.5,0.2-2.1,0.5
			c-0.6,0.3-1,0.8-1.4,1.5v8.4c0.3,0.6,0.8,1.1,1.4,1.4c0.6,0.3,1.3,0.5,2.1,0.5c1.4,0,2.4-0.5,2.9-1.5c0.6-1,0.8-2.4,0.8-4.1V49.5z
			"/>
		<path class="st0" d="M174,42.7l-1.9,0.3l-7.3,19.4c-0.6,1.4-1.3,2.6-2.3,3.6c-1,1-2.4,1.5-4.3,1.5c-0.5,0-0.9,0-1.3-0.1
			c-0.4-0.1-0.9-0.2-1.4-0.3l0.6-3.9c0.2,0,0.4,0,0.5,0.1c0.2,0,0.3,0,0.5,0c0.9,0,1.6-0.2,2.1-0.7c0.5-0.4,0.8-1,1.1-1.6l0.6-1.5
			l-6.3-16.4l-1.9-0.3v-3.2h9.7v3.2l-2.2,0.4L163,51l0.3,1.4l0.1,0l3.1-9.4l-2.2-0.4v-3.2h9.7V42.7z"/>
	</g>
</g>
</svg>
